# xmcd
#
# Track frame offsets: 
#        150
#        11330
#        11687
#        30052
#        34382
#        49183
#        50139
#        74612
#        81471
#        81951
#        99959
#        100612
#        112359
#        112713
#        126908
#        137435
#        145880
#        149920
#        160939
#        161355
#        179300
#        196665
#
# Disc length: 2632 seconds
#
# Revision: 0
# Processed by: cddbd v1.5.2PL0 Copyright (c) Steve Scherf et al.
# Submitted via: ExactAudioCopy v0.99pb4
#
DISCID=2c0a4616
DTITLE=Cadillac Kolstad - Standards of The World, Vol. 1
DYEAR=2006
DGENRE=Blues
TTITLE0=Good Golly Miss Molly
TTITLE1=Intro to Cabbage Head
TTITLE2=Cabbage Head
TTITLE3=Intro to Great Balls of Fire
TTITLE4=Great Balls of Fire
TTITLE5=Intro to My Baby Got Me Walkin'
TTITLE6=My Baby Got Me Walkin'
TTITLE7=Hound Dog
TTITLE8=Intro to What I Say
TTITLE9=What I Say
TTITLE10=Intro to Dust My Broom
TTITLE11=Dust My Broom
TTITLE12=Intro to Heartbreak Hotel
TTITLE13=Heartbreak Hotel
TTITLE14=Nosey Joe
TTITLE15=I Got A Woman
TTITLE16=Intro to Can't Stand To See You Go
TTITLE17=Can't Stand to See You Go
TTITLE18=Can't Stand To See You Go Outro
TTITLE19=Whole Lotta Shakin'
TTITLE20=Whole Lotta Shakin' Slow
TTITLE21=Resonance Finale
EXTD=
EXTT0=
EXTT1=
EXTT2=
EXTT3=
EXTT4=
EXTT5=
EXTT6=
EXTT7=
EXTT8=
EXTT9=
EXTT10=
EXTT11=
EXTT12=
EXTT13=
EXTT14=
EXTT15=
EXTT16=
EXTT17=
EXTT18=
EXTT19=
EXTT20=
EXTT21=
PLAYORDER=
